<mxfile host="Electron" modified="2023-08-13T11:30:39.815Z" agent="Mozilla/5.0 (Windows NT 10.0; Win64; x64) AppleWebKit/537.36 (KHTML, like Gecko) draw.io/21.6.5 Chrome/114.0.5735.243 Electron/25.3.1 Safari/537.36" etag="iVnyg--Jh9kIRzatpNB7" version="21.6.5" type="device">
  <diagram name="Page-1" id="yHiPSUOWMx64FFAEh2TY">
    <mxGraphModel dx="1050" dy="621" grid="1" gridSize="10" guides="1" tooltips="1" connect="1" arrows="1" fold="1" page="1" pageScale="1" pageWidth="827" pageHeight="1169" math="0" shadow="0">
      <root>
        <mxCell id="0" />
        <mxCell id="1" parent="0" />
        <mxCell id="Cd4HYQ21a0V0QEhHVeEA-10" value="" style="rounded=0;whiteSpace=wrap;html=1;fillColor=none;movable=0;resizable=0;rotatable=0;deletable=0;editable=0;locked=1;connectable=0;" vertex="1" parent="1">
          <mxGeometry x="10" y="10" width="810" height="580" as="geometry" />
        </mxCell>
        <mxCell id="Cd4HYQ21a0V0QEhHVeEA-3" value="docker-desktop" style="sketch=0;html=1;dashed=0;whitespace=wrap;fillColor=#2875E2;strokeColor=#ffffff;points=[[0.005,0.63,0],[0.1,0.2,0],[0.9,0.2,0],[0.5,0,0],[0.995,0.63,0],[0.72,0.99,0],[0.5,1,0],[0.28,0.99,0]];verticalLabelPosition=bottom;align=center;verticalAlign=top;shape=mxgraph.kubernetes.icon;prIcon=node;fontFamily=roboto mono;" vertex="1" parent="1">
          <mxGeometry x="80" y="20" width="50" height="48" as="geometry" />
        </mxCell>
        <mxCell id="Cd4HYQ21a0V0QEhHVeEA-6" value="" style="image;sketch=0;aspect=fixed;html=1;points=[];align=center;fontSize=12;image=img/lib/mscae/Kubernetes.svg;fontFamily=roboto mono;" vertex="1" parent="1">
          <mxGeometry x="20" y="20" width="50" height="48" as="geometry" />
        </mxCell>
        <mxCell id="Cd4HYQ21a0V0QEhHVeEA-89" value="" style="rounded=1;whiteSpace=wrap;html=1;fillColor=none;verticalAlign=top;fontFamily=roboto mono;" vertex="1" parent="1">
          <mxGeometry x="50" y="180" width="120" height="220" as="geometry" />
        </mxCell>
        <mxCell id="Cd4HYQ21a0V0QEhHVeEA-90" value="" style="sketch=0;html=1;dashed=0;whitespace=wrap;fillColor=#2875E2;strokeColor=#ffffff;points=[[0.005,0.63,0],[0.1,0.2,0],[0.9,0.2,0],[0.5,0,0],[0.995,0.63,0],[0.72,0.99,0],[0.5,1,0],[0.28,0.99,0]];verticalLabelPosition=bottom;align=center;verticalAlign=top;shape=mxgraph.kubernetes.icon;prIcon=deploy;fontFamily=roboto mono;" vertex="1" parent="1">
          <mxGeometry x="30" y="160" width="50" height="48" as="geometry" />
        </mxCell>
        <mxCell id="Cd4HYQ21a0V0QEhHVeEA-93" value="" style="rounded=1;whiteSpace=wrap;html=1;fillColor=none;" vertex="1" parent="1">
          <mxGeometry x="90" y="220" width="70" height="170" as="geometry" />
        </mxCell>
        <mxCell id="Cd4HYQ21a0V0QEhHVeEA-92" value="" style="sketch=0;html=1;dashed=0;whitespace=wrap;fillColor=#2875E2;strokeColor=#ffffff;points=[[0.005,0.63,0],[0.1,0.2,0],[0.9,0.2,0],[0.5,0,0],[0.995,0.63,0],[0.72,0.99,0],[0.5,1,0],[0.28,0.99,0]];verticalLabelPosition=bottom;align=center;verticalAlign=top;shape=mxgraph.kubernetes.icon;prIcon=rs;fontSize=13;" vertex="1" parent="1">
          <mxGeometry x="70" y="200" width="50" height="48" as="geometry" />
        </mxCell>
        <mxCell id="Cd4HYQ21a0V0QEhHVeEA-94" value="" style="sketch=0;html=1;dashed=0;whitespace=wrap;fillColor=#2875E2;strokeColor=#ffffff;points=[[0.005,0.63,0],[0.1,0.2,0],[0.9,0.2,0],[0.5,0,0],[0.995,0.63,0],[0.72,0.99,0],[0.5,1,0],[0.28,0.99,0]];verticalLabelPosition=bottom;align=center;verticalAlign=top;shape=mxgraph.kubernetes.icon;prIcon=pod" vertex="1" parent="1">
          <mxGeometry x="100" y="280" width="50" height="48" as="geometry" />
        </mxCell>
        <mxCell id="Cd4HYQ21a0V0QEhHVeEA-98" style="edgeStyle=orthogonalEdgeStyle;rounded=0;orthogonalLoop=1;jettySize=auto;html=1;exitX=0.005;exitY=0.63;exitDx=0;exitDy=0;exitPerimeter=0;entryX=0.995;entryY=0.63;entryDx=0;entryDy=0;entryPerimeter=0;" edge="1" parent="1" source="Cd4HYQ21a0V0QEhHVeEA-95" target="Cd4HYQ21a0V0QEhHVeEA-94">
          <mxGeometry relative="1" as="geometry" />
        </mxCell>
        <mxCell id="Cd4HYQ21a0V0QEhHVeEA-95" value="" style="sketch=0;html=1;dashed=0;whitespace=wrap;fillColor=#2875E2;strokeColor=#ffffff;points=[[0.005,0.63,0],[0.1,0.2,0],[0.9,0.2,0],[0.5,0,0],[0.995,0.63,0],[0.72,0.99,0],[0.5,1,0],[0.28,0.99,0]];verticalLabelPosition=bottom;align=center;verticalAlign=top;shape=mxgraph.kubernetes.icon;prIcon=svc;fontFamily=roboto mono;" vertex="1" parent="1">
          <mxGeometry x="190" y="280" width="50" height="48" as="geometry" />
        </mxCell>
        <mxCell id="Cd4HYQ21a0V0QEhHVeEA-99" value="identity" style="text;html=1;align=right;verticalAlign=middle;resizable=0;points=[];autosize=1;strokeColor=none;fillColor=none;fontFamily=roboto mono;" vertex="1" parent="1">
          <mxGeometry x="90" y="150" width="80" height="30" as="geometry" />
        </mxCell>
        <mxCell id="Cd4HYQ21a0V0QEhHVeEA-100" value="" style="rounded=1;whiteSpace=wrap;html=1;fillColor=none;verticalAlign=top;fontFamily=roboto mono;" vertex="1" parent="1">
          <mxGeometry x="540" y="180" width="120" height="220" as="geometry" />
        </mxCell>
        <mxCell id="Cd4HYQ21a0V0QEhHVeEA-101" value="" style="sketch=0;html=1;dashed=0;whitespace=wrap;fillColor=#2875E2;strokeColor=#ffffff;points=[[0.005,0.63,0],[0.1,0.2,0],[0.9,0.2,0],[0.5,0,0],[0.995,0.63,0],[0.72,0.99,0],[0.5,1,0],[0.28,0.99,0]];verticalLabelPosition=bottom;align=center;verticalAlign=top;shape=mxgraph.kubernetes.icon;prIcon=deploy;fontFamily=roboto mono;" vertex="1" parent="1">
          <mxGeometry x="629" y="160" width="50" height="48" as="geometry" />
        </mxCell>
        <mxCell id="Cd4HYQ21a0V0QEhHVeEA-102" value="" style="rounded=1;whiteSpace=wrap;html=1;fillColor=none;" vertex="1" parent="1">
          <mxGeometry x="550" y="220" width="70" height="170" as="geometry" />
        </mxCell>
        <mxCell id="Cd4HYQ21a0V0QEhHVeEA-103" value="" style="sketch=0;html=1;dashed=0;whitespace=wrap;fillColor=#2875E2;strokeColor=#ffffff;points=[[0.005,0.63,0],[0.1,0.2,0],[0.9,0.2,0],[0.5,0,0],[0.995,0.63,0],[0.72,0.99,0],[0.5,1,0],[0.28,0.99,0]];verticalLabelPosition=bottom;align=center;verticalAlign=top;shape=mxgraph.kubernetes.icon;prIcon=rs;fontSize=13;" vertex="1" parent="1">
          <mxGeometry x="590" y="200" width="50" height="48" as="geometry" />
        </mxCell>
        <mxCell id="Cd4HYQ21a0V0QEhHVeEA-104" value="" style="sketch=0;html=1;dashed=0;whitespace=wrap;fillColor=#2875E2;strokeColor=#ffffff;points=[[0.005,0.63,0],[0.1,0.2,0],[0.9,0.2,0],[0.5,0,0],[0.995,0.63,0],[0.72,0.99,0],[0.5,1,0],[0.28,0.99,0]];verticalLabelPosition=bottom;align=center;verticalAlign=top;shape=mxgraph.kubernetes.icon;prIcon=pod" vertex="1" parent="1">
          <mxGeometry x="560" y="280" width="50" height="48" as="geometry" />
        </mxCell>
        <mxCell id="Cd4HYQ21a0V0QEhHVeEA-113" style="edgeStyle=orthogonalEdgeStyle;rounded=0;orthogonalLoop=1;jettySize=auto;html=1;exitX=0.995;exitY=0.63;exitDx=0;exitDy=0;exitPerimeter=0;entryX=0.005;entryY=0.63;entryDx=0;entryDy=0;entryPerimeter=0;" edge="1" parent="1" source="Cd4HYQ21a0V0QEhHVeEA-105" target="Cd4HYQ21a0V0QEhHVeEA-104">
          <mxGeometry relative="1" as="geometry" />
        </mxCell>
        <mxCell id="Cd4HYQ21a0V0QEhHVeEA-105" value="" style="sketch=0;html=1;dashed=0;whitespace=wrap;fillColor=#2875E2;strokeColor=#ffffff;points=[[0.005,0.63,0],[0.1,0.2,0],[0.9,0.2,0],[0.5,0,0],[0.995,0.63,0],[0.72,0.99,0],[0.5,1,0],[0.28,0.99,0]];verticalLabelPosition=bottom;align=center;verticalAlign=top;shape=mxgraph.kubernetes.icon;prIcon=svc;fontFamily=roboto mono;" vertex="1" parent="1">
          <mxGeometry x="470" y="280" width="50" height="48" as="geometry" />
        </mxCell>
        <mxCell id="Cd4HYQ21a0V0QEhHVeEA-111" style="edgeStyle=orthogonalEdgeStyle;rounded=0;orthogonalLoop=1;jettySize=auto;html=1;exitX=0.005;exitY=0.63;exitDx=0;exitDy=0;exitPerimeter=0;entryX=0.995;entryY=0.63;entryDx=0;entryDy=0;entryPerimeter=0;" edge="1" parent="1" source="Cd4HYQ21a0V0QEhHVeEA-106" target="Cd4HYQ21a0V0QEhHVeEA-104">
          <mxGeometry relative="1" as="geometry" />
        </mxCell>
        <mxCell id="Cd4HYQ21a0V0QEhHVeEA-106" value="" style="sketch=0;html=1;dashed=0;whitespace=wrap;fillColor=#2875E2;strokeColor=#ffffff;points=[[0.005,0.63,0],[0.1,0.2,0],[0.9,0.2,0],[0.5,0,0],[0.995,0.63,0],[0.72,0.99,0],[0.5,1,0],[0.28,0.99,0]];verticalLabelPosition=bottom;align=center;verticalAlign=top;shape=mxgraph.kubernetes.icon;prIcon=pvc;fontFamily=roboto mono;" vertex="1" parent="1">
          <mxGeometry x="680" y="280" width="50" height="48" as="geometry" />
        </mxCell>
        <mxCell id="Cd4HYQ21a0V0QEhHVeEA-112" style="edgeStyle=orthogonalEdgeStyle;rounded=0;orthogonalLoop=1;jettySize=auto;html=1;exitX=0.005;exitY=0.63;exitDx=0;exitDy=0;exitPerimeter=0;entryX=0.995;entryY=0.63;entryDx=0;entryDy=0;entryPerimeter=0;endArrow=none;endFill=0;" edge="1" parent="1" source="Cd4HYQ21a0V0QEhHVeEA-108" target="Cd4HYQ21a0V0QEhHVeEA-101">
          <mxGeometry relative="1" as="geometry" />
        </mxCell>
        <mxCell id="Cd4HYQ21a0V0QEhHVeEA-108" value="" style="sketch=0;html=1;dashed=0;whitespace=wrap;fillColor=#2875E2;strokeColor=#ffffff;points=[[0.005,0.63,0],[0.1,0.2,0],[0.9,0.2,0],[0.5,0,0],[0.995,0.63,0],[0.72,0.99,0],[0.5,1,0],[0.28,0.99,0]];verticalLabelPosition=bottom;align=center;verticalAlign=top;shape=mxgraph.kubernetes.icon;prIcon=secret;fontFamily=roboto mono;" vertex="1" parent="1">
          <mxGeometry x="750" y="160" width="50" height="48" as="geometry" />
        </mxCell>
        <mxCell id="Cd4HYQ21a0V0QEhHVeEA-110" style="edgeStyle=orthogonalEdgeStyle;rounded=0;orthogonalLoop=1;jettySize=auto;html=1;exitX=0.005;exitY=0.63;exitDx=0;exitDy=0;exitPerimeter=0;entryX=0.995;entryY=0.63;entryDx=0;entryDy=0;entryPerimeter=0;" edge="1" parent="1" source="Cd4HYQ21a0V0QEhHVeEA-109" target="Cd4HYQ21a0V0QEhHVeEA-106">
          <mxGeometry relative="1" as="geometry" />
        </mxCell>
        <mxCell id="Cd4HYQ21a0V0QEhHVeEA-109" value="" style="sketch=0;html=1;dashed=0;whitespace=wrap;fillColor=#2875E2;strokeColor=#ffffff;points=[[0.005,0.63,0],[0.1,0.2,0],[0.9,0.2,0],[0.5,0,0],[0.995,0.63,0],[0.72,0.99,0],[0.5,1,0],[0.28,0.99,0]];verticalLabelPosition=bottom;align=center;verticalAlign=top;shape=mxgraph.kubernetes.icon;prIcon=pv;fontFamily=roboto mono;" vertex="1" parent="1">
          <mxGeometry x="750" y="281" width="50" height="48" as="geometry" />
        </mxCell>
        <mxCell id="Cd4HYQ21a0V0QEhHVeEA-114" value="identity-pg" style="text;html=1;align=left;verticalAlign=middle;resizable=0;points=[];autosize=1;strokeColor=none;fillColor=none;fontFamily=roboto mono;" vertex="1" parent="1">
          <mxGeometry x="540" y="150" width="100" height="30" as="geometry" />
        </mxCell>
        <mxCell id="Cd4HYQ21a0V0QEhHVeEA-117" value="" style="shape=image;verticalLabelPosition=bottom;labelBackgroundColor=default;verticalAlign=top;aspect=fixed;imageAspect=0;image=data:image/svg+xml,PHN2ZyB4bWxucz0iaHR0cDovL3d3dy53My5vcmcvMjAwMC9zdmciIGhlaWdodD0iNDhweCIgd2lkdGg9IjQ4cHgiIHZpZXdCb3g9IjAgMCA0OCA0OCI+PHBhdGggZD0iTTQ0LjA4MywyOS43OWMtMC4xODMtMC44MjktMC45MzUtMS43OTYtMi40NTItMS43OTZjLTAuMzEsMC0wLjY0OSwwLjAzOS0xLjAzNSwwLjExOWMtMC43MDgsMC4xNDYtMS4zMTEsMC4yMTctMS44NDIsMC4yNDFjNC4xMzMtNy4wNCw2LjgxNi0xNi44MTksNC4xNTktMjAuMjE0Yy0zLjUwMS00LjQ3My04LjIxNC01LjE0MS0xMC43MTEtNS4xNDFMMzEuOTY3LDNjLTAuOTI5LDAuMDE1LTEuODkzLDAuMTI5LTIuODYzLDAuMzM5bC0zLjU4MywwLjc3NEMyNS4wMzMsNC4wNTIsMjQuNTM2LDQuMDA5LDI0LjAxOCw0bC0wLjAzLDBsLTAuMDE2LDBsLTAuMTUyLTAuMDAxYy0xLjU5MywwLTMuMDQ2LDAuMzM4LTQuMzQxLDAuOTczbC0xLjI1MS0wLjQ5M2MtMS43Mi0wLjY3OC00LjMwOC0xLjQ4NS02Ljg2OC0xLjQ4NWMtMC4xNDQsMC0wLjI4NywwLjAwMy0wLjQzMSwwLjAwOEM4LjQwNywzLjA5Myw2LjI0MSw0LjA1LDQuNjY0LDUuNzY5QzIuNjk2LDcuOTE1LDEuOCwxMS4wNTQsMi4wMDMsMTUuMUMyLjAxMywxNS4zMDksNC40NjEsMzYsMTEuNCwzNmgwLjAyNWwwLjA2NC0wLjAwMWMwLjkwMS0wLjAyMiwxLjc2LTAuMzg0LDIuNTYzLTEuMDc3YzAuNjEzLDAuNDYsMS40MDYsMC43MzIsMi4xNDUsMC44NGMwLjQ4OCwwLjExNSwxLjM2NiwwLjI3OCwyLjQxOCwwLjI3OGMxLjI4NCwwLDIuNDQyLTAuMjYzLDMuNDQtMC43MzhjLTAuMDAxLDAuODgtMC4wMDYsMS45OTQtMC4wMTYsMy40MThsLTAuMDAxLDAuMDc1bDAuMDA1LDAuMDc1YzAuMDk3LDEuNDE5LDAuMzQyLDIuNjk4LDAuNzExLDMuNzAxYzEuMDUxLDIuODU5LDIuODY2LDQuNDM0LDUuMTExLDQuNDM0YzAuMDkzLDAsMC4xODgtMC4wMDMsMC4yODQtMC4wMDljMS44NDYtMC4xMTQsMy43MTctMS4xNTEsNS4wMDQtMi43NzJjMS4zOTMtMS43NTUsMS43MTUtMy42MDcsMS44MzktNS4wMjZMMzUsMzkuMTExdi0wLjA4OHYtNC4wNzlsMC4xMDMsMC4wMWwwLjQzNiwwLjAzOGwwLjA0MiwwLjAwNGwwLjA0MiwwLjAwMmMwLjEyNCwwLjAwNiwwLjI1MiwwLjAwOCwwLjM4MSwwLjAwOGMxLjUwNywwLDMuMzYyLTAuMzkxLDQuNjE2LTAuOTc0QzQxLjgxOSwzMy40NzYsNDQuNTU5LDMxLjk0OCw0NC4wODMsMjkuNzl6IiBmaWxsPSIjZmZmIi8+PHBhdGggZD0iTTMzLDM0YzAtMC4yMDUsMC4wMTItMC4zNzYsMC4wMTgtMC41NjVDMzMuMDA4LDMzLjE4NCwzMywzMywzMywzM3MwLjAxMi0wLjAwOSwwLjAzMi0wLjAyMmMwLjE0OS0yLjY3MywwLjg4Ni0zLjcwMywxLjY3NS00LjI5Yy0wLjExLTAuMTUzLTAuMjM3LTAuMzE4LTAuMzU2LTAuNDc1Yy0wLjMzMy0wLjQzNy0wLjc0OC0wLjk3OS0xLjE5Mi0xLjY3NGwtMC4wODItMC4xNThjLTAuMDY3LTAuMTY0LTAuMjI5LTAuNDQ3LTAuNDM1LTAuODE5Yy0xLjE4My0yLjE0LTMuNjQ1LTYuNTkyLTEuOTYtOS40MDRjMC43MzgtMS4yMzIsMi4xMjItMS45NDIsNC4xMjEtMi4xMTdDMzMuOTg2LDExLjcxOCwzMC45MjUsNi4xMTUsMjMuOTg1LDZjLTAuMDAyLDAtMC4wMDQsMC0wLjAwNiwwYy02LjA0MS0wLjA5OC04LjAyNiw1LjM5Mi04LjY3Miw4LjY3MmMwLjg5LTAuMzc3LDEuOTA2LTAuNjA2LDIuODM2LTAuNjA2YzAuMDE0LDAsMC4wMjksMCwwLjA0MywwYzIuMjksMC4wMTcsMy44NjUsMS4yMzksNC4zMjMsMy4zNTRjMC4zMzUsMS41NTIsMC40OTYsMi45MSwwLjQ5Miw0LjE1M2MtMC4wMSwyLjcxOS0wLjU1OCw0LjE0OS0xLjA0Miw1LjQxMWwtMC4xNTQsMC40MDhjLTAuMTI0LDAuMzM0LTAuMjU1LDAuNjQ1LTAuMzc5LDAuOTM3Yy0wLjEyNiwwLjI5OC0wLjIzNywwLjU2My0wLjMxOCwwLjgwMmMwLjQ4NCwwLjExLDAuODY0LDAuMjY1LDEuMTI1LDAuMzhsMC4xNTEsMC4wNjZjMC4wNDcsMC4wMiwwLjA5NCwwLjA0MywwLjEzNywwLjA2OWMwLjg0OCwwLjUxNiwxLjM3NiwxLjMwOSwxLjQ4OSwyLjIzM2MwLjA2MSwwLjQ5OCwwLjA1MSwzLjg5MywwLjAzLDYuODU1YzAuMDg3LDEuMjg1LDAuMzA1LDIuMzY0LDAuNTkzLDMuMTQ2YzAuNDA5LDEuMTE0LDEuNDMxLDMuMjQxLDMuMzk0LDMuMTE5YzEuMzctMC4wODUsMi42ODctMC45MTksMy41NjEtMi4wMTljMC45MzgtMS4xODEsMS4yODQtMi40ODcsMS40MTQtMy45NThWMzR6IiBmaWxsPSIjMDI3N2JkIi8+PHBhdGggZD0iTTE1LjExNCAyOC45MTdjLTEuNjEzLTEuNjgzLTIuMzk5LTMuOTQ3LTIuMTA0LTYuMDU2LjI4NS0yLjAzNS4xMjQtNC4wMjcuMDM3LTUuMDk4LS4wMjktLjM1Ny0uMDQ4LS42MjMtLjA0Ny0uNzcgMC0uMDA4LjAwMi0uMDE1LjAwMy0uMDIzIDAtLjAwNC0uMDAyLS4wMDctLjAwMi0uMDExLjEyMS0zLjAyMSAxLjI4Ni03Ljc4NyA0LjQ5My0xMC42MkMxNS45MzIgNS43MjQgMTMuMzg4IDQuOTEzIDExIDUgNy4yNTggNS4xMzYgMy42MzYgNy43MjQgNCAxNWMuMTM3IDIuNzMgMy4yMjIgMTkuMTAzIDcuNDQgMTkgLjYwMy0uMDE1IDEuMjI5LS40MDIgMS44NzItMS4xNzYgMS4wMTctMS4yMjMgMi4wMDUtMi4zMzIgMi43MDgtMy4xMDRDMTUuNzA1IDI5LjQ4MSAxNS40MDEgMjkuMjE3IDE1LjExNCAyOC45MTd6TTM3LjAyMyAxNC43MzFjLjAxNS4xNTQuMDAyLjI4Ni0uMDIyLjQwOC4wMzEuOTItLjA2OCAxLjgxMy0uMTY5IDIuNjc3LS4wNzQuNjM2LS4xNSAxLjI5My0uMTcxIDEuOTUyLS4wMjEuNjQ1LjA3IDEuMjgyLjE2NiAxLjk1Ni4yMjUgMS41NzguNDU5IDMuMzU5LS43NjUgNS40MzcuMjI1LjI5Ni40MjMuNTcxLjU4MS44MzcgNC42MS03LjQ3NSA2LjQ2OC0xNi4zNjEgNC42OTUtMTguNjI2QzM4LjY1NSA1Ljk0NCAzNC45NDEgNC45NTIgMzEuOTk5IDVjLS45MjEuMDE1LTEuNzU4LjEzOS0yLjQ3My4yOTRDMzQuNjAyIDcuNzU0IDM2Ljg2MyAxMy4wMjYgMzcuMDIzIDE0LjczMXpNNDEgMzAuMDcxYy0yLjY2NS41NS0zLjk0Ny4yNTctNC41NjktLjEyNi0uMS4wNzItLjIuMTMzLS4yOTMuMTktLjM3Mi4yMjUtLjk2MS41ODMtMS4xMDUgMi43ODIuMDgzLjAxNi4xNTYuMDI1LjI0Ni4wNDRMMzUuNzE0IDMzYzEuMzIuMDYgMy4wNDktLjMxIDQuMDYzLS43ODFDNDEuOTYyIDMxLjIwNSA0My4xNTMgMjkuNjI3IDQxIDMwLjA3MXpNMjIuMDIzIDMyLjExOWMtLjAzNy0uMjk4LS4xOTgtLjUzOS0uNDkyLS43MzJsLS4xMDgtLjA0N0MyMS4wNjIgMzEuMTgxIDIwLjY1MyAzMSAyMCAzMWgtLjAwNGMtLjEyNy4wMS0uMjUzLjAxOS0uMzguMDE5LS4wNTIgMC0uMTAzLS4wMDctLjE1NS0uMDA5LS40NzQuMzY1LTEuMTQ4LjY0Ny0yLjgxNi45OS0yLjk4Ljc1OS0xLjIyMSAxLjY1NS0uMDc4IDEuNzk0IDEuMTA2LjI3NyAzLjczNS42MTQgNS40ODEtLjgwOUMyMi4wNDMgMzIuNTM3IDIyLjAzNSAzMi4yMjkgMjIuMDIzIDMyLjExOXoiIGZpbGw9IiMwMjc3YmQiLz48cGF0aCBkPSJNMjAuNjgxIDE4LjUwMWMtLjI5Mi4zMDItLjc1My41NjYtMS4yNjIuNDg0LS44MjgtLjEzNC0xLjQ2My0xLjEzMy0xLjQxNy0xLjUwOGgwYy4wNDQtLjM3NC43NTEtLjU2OSAxLjU3OC0uNDM1LjI4Ny4wNDcuNTQ4LjEyOC43NjguMjI4LS4zMi0uNjg4LS44OTktMS4wODUtMS43ODItMS4xODItMS41NjUtLjE3NC0zLjIyNi42NDQtMy41NiAxLjA5Ny4wMDcuMTEuMDIuMjUxLjAzMy40MTcuMDkzIDEuMTQ3LjI2NSAzLjI4NC0uMDUgNS41MzctLjIwOCAxLjQ4NS4zOTMgMy4xNjkgMS41NjcgNC4zOTUuNzU3Ljc5IDEuNjQxIDEuMjkgMi41MTMgMS40MzguMTExLS40NzguMzA5LS45NDQuNTEzLTEuNDI1LjExMy0uMjY1LjIzMy0uNTQ3LjM0Ni0uODUybC4xNjItLjQyN2MuNDQzLTEuMTU1LjktMi4zNS45MDktNC43MDNDMjEuMDAzIDIwLjY2IDIwLjg5MiAxOS42MjcgMjAuNjgxIDE4LjUwMXpNMzQuODQ3IDIyLjAwN2MtLjEwNC0uNzI5LS4yMTEtMS40ODQtLjE4NS0yLjMwMy4wMjMtLjc0Mi4xMDUtMS40NDIuMTg0LTIuMTE5LjA2Mi0uNTMzLjExLTEuMDQ1LjEzOC0xLjU1LTEuMjg5LjEwNy0yLjE0NS40NzktMi41NTEgMS4xMDguMTY4LS4wNTcuMzU4LS4xMDIuNTY4LS4xMjkuODkyLS4xMTYgMS41NDMuMTQxIDEuNjE4LjYzNy4wNTUuMzYzLS4yNTMuNzA1LS4zODguODM2LS4yNzcuMjY5LS42MjYuNDQyLS45ODEuNDg4LS4wNjQuMDA4LS4xMjkuMDEyLS4xOTIuMDEyLS4zNTMgMC0uNjktLjEyMS0uOTQ5LS4zLjExMiAxLjk3MyAxLjU2NyA0LjYxMiAyLjI4MyA1LjkwNy4xNTMuMjc3LjI3MS40OTguMzY5LjY4OEMzNS4xNTQgMjQuMTYzIDM1LjAwOSAyMy4xNDMgMzQuODQ3IDIyLjAwN3oiIGZpbGw9IiMwMjc3YmQiLz48L3N2Zz4=;" vertex="1" parent="1">
          <mxGeometry x="570" y="330" width="30" height="30" as="geometry" />
        </mxCell>
        <mxCell id="Cd4HYQ21a0V0QEhHVeEA-123" value="" style="shape=image;verticalLabelPosition=bottom;labelBackgroundColor=default;verticalAlign=top;aspect=fixed;imageAspect=0;image=data:image/svg+xml,PHN2ZyB4bWxucz0iaHR0cDovL3d3dy53My5vcmcvMjAwMC9zdmciIGhlaWdodD0iNDhweCIgd2lkdGg9IjQ4cHgiIHZpZXdCb3g9IjAgMCA0OCA0OCI+PHBhdGggZD0iTTE3LjIwNCAxOS4xMjJsLTQuOTA3IDIuNzE1QzEyLjExMyAyMS45MzggMTIgMjIuMTI2IDEyIDIyLjMyOXY1LjQzM2MwIC4yMDMuMTEzLjM5LjI5Ny40OTJsNC45MDggMi43MTdjLjE4My4xMDEuNDEuMTAxLjU5MyAwbDQuOTA3LTIuNzE3QzIyLjg4NyAyOC4xNTIgMjMgMjcuOTY1IDIzIDI3Ljc2MnYtNS40MzNjMC0uMjAzLS4xMTMtLjM5LS4yOTctLjQ5MmwtNC45MDYtMi43MTVjLS4wOTItLjA1MS0uMTk1LS4wNzYtLjI5Ny0uMDc2LS4xMDMgMC0uMjA1LjAyNS0uMjk3LjA3Nk00Mi40NTEgMjQuMDEzbC0uODE4LjQ1MmMtLjAzMS4wMTctLjA0OS4wNDgtLjA0OS4wODJ2LjkwNmMwIC4wMzQuMDE5LjA2NS4wNDkuMDgybC44MTguNDUzYy4wMzEuMDE3LjA2OC4wMTcuMDk5IDBsLjgxOC0uNDUzYy4wMy0uMDE3LjA0OS0uMDQ4LjA0OS0uMDgydi0uOTA2YzAtLjAzNC0uMDE5LS4wNjUtLjA1LS4wODJsLS44MTgtLjQ1MkM0Mi41MzQgMjQuMDA0IDQyLjUxNyAyNCA0Mi41IDI0UzQyLjQ2NiAyNC4wMDQgNDIuNDUxIDI0LjAxMyIgZmlsbD0iIzM4OGUzYyIvPjxwYXRoIGQ9Ik0zNS43NTEsMTMuMzY0bC0yLjM4OS0xLjMzM2MtMC4wNzUtMC4wNDItMC4xNjctMC4wNDEtMC4yNDEsMC4wMDMgYy0wLjA3NCwwLjA0NC0wLjEyLDAuMTIzLTAuMTIsMC4yMDlMMzMsMjAuMjk1bC0yLjIwMy0xLjIxOUMzMC43MDUsMTkuMDI1LDMwLjYwMiwxOSwzMC41LDE5Yy0wLjEwMiwwLTAuMjA1LDAuMDI1LTAuMjk3LDAuMDc2IGgwLjAwMWwtNC45MDcsMi43MTVDMjUuMTEzLDIxLjg5MiwyNSwyMi4wOCwyNSwyMi4yODJ2NS40MzNjMCwwLjIwMywwLjExMywwLjM5LDAuMjk3LDAuNDkybDQuOTA4LDIuNzE3IGMwLjE4MywwLjEwMSwwLjQxLDAuMTAxLDAuNTkzLDBsNC45MDctMi43MTdDMzUuODg3LDI4LjEwNiwzNiwyNy45MTgsMzYsMjcuNzE1VjEzLjc4OEMzNiwxMy42MTIsMzUuOTA0LDEzLjQ1LDM1Ljc1MSwxMy4zNjR6IE0zMi44NjYsMjYuNDU4bC0yLjIzLDEuMjM1Yy0wLjA4MywwLjA0Ni0wLjE4NiwwLjA0Ni0wLjI2OSwwbC0yLjIzMS0xLjIzNUMyOC4wNTEsMjYuNDEyLDI4LDI2LjMyNiwyOCwyNi4yMzR2LTIuNDcgYzAtMC4wOTIsMC4wNTEtMC4xNzcsMC4xMzUtMC4yMjRsMi4yMzEtMS4yMzRoLTAuMDAxYzAuMDQyLTAuMDIzLDAuMDg4LTAuMDM0LDAuMTM1LTAuMDM0YzAuMDQ3LDAsMC4wOTMsMC4wMTIsMC4xMzUsMC4wMzQgbDIuMjMsMS4yMzRDMzIuOTQ5LDIzLjU4NywzMywyMy42NzMsMzMsMjMuNzY1djIuNDdDMzMsMjYuMzI2LDMyLjk0OSwyNi40MTIsMzIuODY2LDI2LjQ1OHoiIGZpbGw9IiMzNzQ3NGYiLz48cGF0aCBkPSJNMTcuMjA0LDE5LjEyMkwxMiwyNy43NjJjMCwwLjIwMywwLjExMywwLjM5LDAuMjk3LDAuNDkybDQuOTA4LDIuNzE3IGMwLjE4MywwLjEwMSwwLjQxLDAuMTAxLDAuNTkzLDBMMjMsMjIuMzI5YzAtMC4yMDMtMC4xMTMtMC4zOS0wLjI5Ny0wLjQ5MmwtNC45MDYtMi43MTVjLTAuMDkyLTAuMDUxLTAuMTk1LTAuMDc2LTAuMjk3LTAuMDc2IGMtMC4xMDMsMC0wLjIwNSwwLjAyNS0wLjI5NywwLjA3NiIgZmlsbD0iIzJlN2QzMiIvPjxwYXRoIGQ9Ik0xNy4yMDQsMTkuMTIybC00LjkwNywyLjcxNUMxMi4xMTMsMjEuOTM4LDEyLDIyLjEyNiwxMiwyMi4zMjlsNS4yMDQsOC42NDIgYzAuMTgzLDAuMTAxLDAuNDEsMC4xMDEsMC41OTMsMGw0LjkwNy0yLjcxN0MyMi44ODcsMjguMTUyLDIzLDI3Ljk2NSwyMywyNy43NjJsLTUuMjAzLTguNjRjLTAuMDkyLTAuMDUxLTAuMTk1LTAuMDc2LTAuMjk3LTAuMDc2IGMtMC4xMDMsMC0wLjIwNSwwLjAyNS0wLjI5NywwLjA3NiIgZmlsbD0iIzRjYWY1MCIvPjxwYXRoIGQ9Ik00Ny43MDMgMjEuNzkxbC00LjkwNi0yLjcxNUM0Mi43MDUgMTkuMDI1IDQyLjYwMiAxOSA0Mi41IDE5Yy0uMTAyIDAtLjIwNS4wMjUtLjI5Ny4wNzZoLjAwMWwtNC45MDcgMi43MTVDMzcuMTE0IDIxLjg5MiAzNyAyMi4wODQgMzcgMjIuMjk0djUuNDExYzAgLjIwOS4xMTQuNDAyLjI5Ny41MDNsNC45MDggMi43MTdjLjE4NC4xMDIuNDA5LjEwMi41OTMgMGwyLjI2My0xLjI1M2MuMjA3LS4xMTUuMjA2LS40MTItLjAwMi0uNTI2bC00LjkyNC0yLjY4N0M0MC4wNTIgMjYuNDEyIDQwIDI2LjMyNSA0MCAyNi4yMzF2LTIuNDY2YzAtLjA5Mi4wNS0uMTc3LjEzLS4yMjFsMi4yMzUtMS4yMzZoLS4wMDFjLjA0Mi0uMDIzLjA4OC0uMDM0LjEzNS0uMDM0LjA0NyAwIC4wOTMuMDEyLjEzNS4wMzRsMi4yMzUgMS4yMzdjLjA4LjA0NC4xMy4xMjkuMTMuMjIxdjIuMDEyYzAgLjA4Ni4wNDYuMTY2LjEyMS4yMDkuMDc1LjA0Mi4xNjcuMDQyLjI0Mi0uMDAxbDIuMzk4LTEuMzkzYy4xNDgtLjA4Ni4yNC0uMjQ1LjI0LS40MTd2LTEuODhDNDggMjIuMDg1IDQ3Ljg4NiAyMS44OTIgNDcuNzAzIDIxLjc5MXpNMTAuNzAzIDIxLjc5MWwtNC45MDYtMi43MTVDNS43MDUgMTkuMDI1IDUuNjAyIDE5IDUuNSAxOWMtLjEwMiAwLS4yMDUuMDI1LS4yOTcuMDc2aC4wMDFsLTQuOTA3IDIuNzE1Qy4xMTQgMjEuODkyIDAgMjIuMDg0IDAgMjIuMjk0djcuNDY1YzAgLjA4Ni4wNDYuMTY2LjEyMS4yMDkuMDc1LjA0Mi4xNjcuMDQyLjI0Mi0uMDAxbDIuMzk4LTEuMzkzQzIuOTA5IDI4LjQ4OCAzIDI4LjMyOSAzIDI4LjE1N3YtNC4zOTNjMC0uMDkyLjA1LS4xNzcuMTMtLjIyMWwyLjIzNS0xLjIzNkg1LjM2NWMuMDQyLS4wMjMuMDg4LS4wMzQuMTM1LS4wMzQuMDQ3IDAgLjA5My4wMTIuMTM1LjAzNGwyLjIzNSAxLjIzN0M3Ljk1IDIzLjU4OCA4IDIzLjY3MyA4IDIzLjc2NXY0LjM5M2MwIC4xNzIuMDkxLjMzMS4yNC40MTdsMi4zOTggMS4zOTNjLjA3NS4wNDMuMTY3LjA0My4yNDIuMDAxQzEwLjk1NCAyOS45MjUgMTEgMjkuODQ1IDExIDI5Ljc1OXYtNy40NjRDMTEgMjIuMDg1IDEwLjg4NiAyMS44OTIgMTAuNzAzIDIxLjc5MXoiIGZpbGw9IiMzNzQ3NGYiLz48L3N2Zz4=;" vertex="1" parent="1">
          <mxGeometry x="100" y="310" width="52" height="52" as="geometry" />
        </mxCell>
      </root>
    </mxGraphModel>
  </diagram>
</mxfile>
